<mxfile host="app.diagrams.net" modified="2021-05-21T03:15:32.623Z" agent="5.0 (Windows NT 10.0; Win64; x64) AppleWebKit/537.36 (KHTML, like Gecko) Chrome/90.0.4430.212 Safari/537.36" etag="MMVzKm26LWzMh3afJXZc" version="14.6.13" type="github">
  <diagram id="DN4aTL3SDgSUdVNVyypC" name="Page-1">
    <mxGraphModel dx="1955" dy="605" grid="1" gridSize="10" guides="1" tooltips="1" connect="1" arrows="1" fold="1" page="1" pageScale="1" pageWidth="827" pageHeight="1169" math="0" shadow="0">
      <root>
        <mxCell id="0" />
        <mxCell id="1" parent="0" />
        <mxCell id="pibNLHYzL_vAkOEPD65m-1" value="User" style="rounded=0;whiteSpace=wrap;html=1;fontFamily=Poppins;fontSource=https%3A%2F%2Ffonts.googleapis.com%2Fcss%3Ffamily%3DPoppins;fillColor=#ffe6cc;strokeColor=#d79b00;" vertex="1" parent="1">
          <mxGeometry x="40" y="40" width="120" height="60" as="geometry" />
        </mxCell>
        <mxCell id="pibNLHYzL_vAkOEPD65m-2" value="GUI" style="rounded=0;whiteSpace=wrap;html=1;fontFamily=Poppins;fontSource=https%3A%2F%2Ffonts.googleapis.com%2Fcss%3Ffamily%3DPoppins;fillColor=#ffe6cc;strokeColor=#d79b00;" vertex="1" parent="1">
          <mxGeometry x="240" y="40" width="120" height="60" as="geometry" />
        </mxCell>
        <mxCell id="pibNLHYzL_vAkOEPD65m-3" value="API" style="rounded=0;whiteSpace=wrap;html=1;fontFamily=Poppins;fontSource=https%3A%2F%2Ffonts.googleapis.com%2Fcss%3Ffamily%3DPoppins;fillColor=#ffe6cc;strokeColor=#d79b00;" vertex="1" parent="1">
          <mxGeometry x="440" y="40" width="120" height="60" as="geometry" />
        </mxCell>
        <mxCell id="pibNLHYzL_vAkOEPD65m-4" value="Database" style="rounded=0;whiteSpace=wrap;html=1;fontFamily=Poppins;fontSource=https%3A%2F%2Ffonts.googleapis.com%2Fcss%3Ffamily%3DPoppins;fillColor=#ffe6cc;strokeColor=#d79b00;" vertex="1" parent="1">
          <mxGeometry x="640" y="40" width="120" height="60" as="geometry" />
        </mxCell>
        <mxCell id="pibNLHYzL_vAkOEPD65m-8" value="" style="endArrow=none;startArrow=none;endFill=0;startFill=0;endSize=8;html=1;verticalAlign=bottom;dashed=1;labelBackgroundColor=none;dashPattern=10 10;entryX=0.5;entryY=1;entryDx=0;entryDy=0;exitX=0.491;exitY=0;exitDx=0;exitDy=0;exitPerimeter=0;fontFamily=Poppins;fontSource=https%3A%2F%2Ffonts.googleapis.com%2Fcss%3Ffamily%3DPoppins;" edge="1" parent="1" source="pibNLHYzL_vAkOEPD65m-5" target="pibNLHYzL_vAkOEPD65m-1">
          <mxGeometry width="160" relative="1" as="geometry">
            <mxPoint x="370" y="190" as="sourcePoint" />
            <mxPoint x="180" y="130" as="targetPoint" />
          </mxGeometry>
        </mxCell>
        <mxCell id="pibNLHYzL_vAkOEPD65m-10" value="" style="endArrow=none;startArrow=none;endFill=0;startFill=0;endSize=8;html=1;verticalAlign=bottom;dashed=1;labelBackgroundColor=none;dashPattern=10 10;entryX=0.5;entryY=1;entryDx=0;entryDy=0;exitX=0.448;exitY=-0.002;exitDx=0;exitDy=0;exitPerimeter=0;fontFamily=Poppins;fontSource=https%3A%2F%2Ffonts.googleapis.com%2Fcss%3Ffamily%3DPoppins;" edge="1" parent="1" source="pibNLHYzL_vAkOEPD65m-9" target="pibNLHYzL_vAkOEPD65m-2">
          <mxGeometry width="160" relative="1" as="geometry">
            <mxPoint x="310" y="140" as="sourcePoint" />
            <mxPoint x="110" y="110" as="targetPoint" />
          </mxGeometry>
        </mxCell>
        <mxCell id="pibNLHYzL_vAkOEPD65m-12" value="1.click on register button" style="html=1;verticalAlign=bottom;labelBackgroundColor=none;endArrow=open;endFill=0;entryX=-0.208;entryY=0.122;entryDx=0;entryDy=0;entryPerimeter=0;exitX=0.971;exitY=0.122;exitDx=0;exitDy=0;exitPerimeter=0;fontFamily=Poppins;fontSource=https%3A%2F%2Ffonts.googleapis.com%2Fcss%3Ffamily%3DPoppins;" edge="1" parent="1" source="pibNLHYzL_vAkOEPD65m-5" target="pibNLHYzL_vAkOEPD65m-9">
          <mxGeometry width="160" relative="1" as="geometry">
            <mxPoint x="330" y="220" as="sourcePoint" />
            <mxPoint x="490" y="220" as="targetPoint" />
          </mxGeometry>
        </mxCell>
        <mxCell id="pibNLHYzL_vAkOEPD65m-13" value="2.request register page" style="endArrow=classic;html=1;rounded=0;align=center;verticalAlign=bottom;endFill=1;labelBackgroundColor=none;exitX=0.934;exitY=0.183;exitDx=0;exitDy=0;exitPerimeter=0;startArrow=classic;startFill=1;fontFamily=Poppins;fontSource=https%3A%2F%2Ffonts.googleapis.com%2Fcss%3Ffamily%3DPoppins;" edge="1" parent="1" source="pibNLHYzL_vAkOEPD65m-9">
          <mxGeometry relative="1" as="geometry">
            <mxPoint x="310" y="220" as="sourcePoint" />
            <mxPoint x="494" y="220" as="targetPoint" />
          </mxGeometry>
        </mxCell>
        <mxCell id="pibNLHYzL_vAkOEPD65m-14" value="3.return register page" style="resizable=0;html=1;align=center;verticalAlign=top;labelBackgroundColor=none;fontFamily=Poppins;fontSource=https%3A%2F%2Ffonts.googleapis.com%2Fcss%3Ffamily%3DPoppins;" connectable="0" vertex="1" parent="pibNLHYzL_vAkOEPD65m-13">
          <mxGeometry relative="1" as="geometry" />
        </mxCell>
        <mxCell id="pibNLHYzL_vAkOEPD65m-16" value="" style="endArrow=none;startArrow=none;endFill=0;startFill=0;endSize=8;html=1;verticalAlign=bottom;dashed=1;labelBackgroundColor=none;dashPattern=10 10;entryX=0.5;entryY=1;entryDx=0;entryDy=0;exitX=0.448;exitY=-0.002;exitDx=0;exitDy=0;exitPerimeter=0;fontFamily=Poppins;fontSource=https%3A%2F%2Ffonts.googleapis.com%2Fcss%3Ffamily%3DPoppins;" edge="1" source="pibNLHYzL_vAkOEPD65m-15" parent="1">
          <mxGeometry width="160" relative="1" as="geometry">
            <mxPoint x="510" y="140" as="sourcePoint" />
            <mxPoint x="500" y="100" as="targetPoint" />
          </mxGeometry>
        </mxCell>
        <mxCell id="pibNLHYzL_vAkOEPD65m-17" value="4.Show registration field" style="html=1;verticalAlign=bottom;labelBackgroundColor=none;endArrow=open;endFill=0;fontFamily=Poppins;fontSource=https%3A%2F%2Ffonts.googleapis.com%2Fcss%3Ffamily%3DPoppins;entryX=0.935;entryY=0.239;entryDx=0;entryDy=0;entryPerimeter=0;exitX=0.082;exitY=0.242;exitDx=0;exitDy=0;exitPerimeter=0;" edge="1" parent="1" source="pibNLHYzL_vAkOEPD65m-9" target="pibNLHYzL_vAkOEPD65m-5">
          <mxGeometry width="160" relative="1" as="geometry">
            <mxPoint x="300" y="350" as="sourcePoint" />
            <mxPoint x="460" y="350" as="targetPoint" />
          </mxGeometry>
        </mxCell>
        <mxCell id="pibNLHYzL_vAkOEPD65m-18" value="5. Fill the fields" style="html=1;verticalAlign=bottom;labelBackgroundColor=none;endArrow=open;endFill=0;fontFamily=Poppins;fontSource=https%3A%2F%2Ffonts.googleapis.com%2Fcss%3Ffamily%3DPoppins;exitX=1.035;exitY=0.334;exitDx=0;exitDy=0;exitPerimeter=0;" edge="1" parent="1" source="pibNLHYzL_vAkOEPD65m-5" target="pibNLHYzL_vAkOEPD65m-9">
          <mxGeometry width="160" relative="1" as="geometry">
            <mxPoint x="140" y="270" as="sourcePoint" />
            <mxPoint x="295" y="280" as="targetPoint" />
          </mxGeometry>
        </mxCell>
        <mxCell id="pibNLHYzL_vAkOEPD65m-19" value="6. Send user information" style="html=1;verticalAlign=bottom;labelBackgroundColor=none;endArrow=open;endFill=0;fontFamily=Poppins;fontSource=https%3A%2F%2Ffonts.googleapis.com%2Fcss%3Ffamily%3DPoppins;entryX=0.082;entryY=0.42;entryDx=0;entryDy=0;entryPerimeter=0;exitX=0.982;exitY=0.422;exitDx=0;exitDy=0;exitPerimeter=0;" edge="1" parent="1" source="pibNLHYzL_vAkOEPD65m-9" target="pibNLHYzL_vAkOEPD65m-15">
          <mxGeometry width="160" relative="1" as="geometry">
            <mxPoint x="190" y="260" as="sourcePoint" />
            <mxPoint x="350" y="260" as="targetPoint" />
          </mxGeometry>
        </mxCell>
        <mxCell id="pibNLHYzL_vAkOEPD65m-21" value="" style="endArrow=none;startArrow=none;endFill=0;startFill=0;endSize=8;html=1;verticalAlign=bottom;dashed=1;labelBackgroundColor=none;dashPattern=10 10;entryX=0.5;entryY=1;entryDx=0;entryDy=0;exitX=0.448;exitY=-0.002;exitDx=0;exitDy=0;exitPerimeter=0;fontFamily=Poppins;fontSource=https%3A%2F%2Ffonts.googleapis.com%2Fcss%3Ffamily%3DPoppins;" edge="1" source="pibNLHYzL_vAkOEPD65m-20" parent="1">
          <mxGeometry width="160" relative="1" as="geometry">
            <mxPoint x="710" y="140" as="sourcePoint" />
            <mxPoint x="700" y="100" as="targetPoint" />
          </mxGeometry>
        </mxCell>
        <mxCell id="pibNLHYzL_vAkOEPD65m-22" value="&lt;font style=&quot;font-size: 9px&quot;&gt;7.Check user mail and phone number&lt;/font&gt;" style="html=1;verticalAlign=bottom;labelBackgroundColor=none;endArrow=open;endFill=0;fontFamily=Poppins;fontSource=https%3A%2F%2Ffonts.googleapis.com%2Fcss%3Ffamily%3DPoppins;exitX=0.95;exitY=0.488;exitDx=0;exitDy=0;exitPerimeter=0;" edge="1" parent="1" source="pibNLHYzL_vAkOEPD65m-15" target="pibNLHYzL_vAkOEPD65m-20">
          <mxGeometry width="160" relative="1" as="geometry">
            <mxPoint x="470" y="380" as="sourcePoint" />
            <mxPoint x="630" y="380" as="targetPoint" />
          </mxGeometry>
        </mxCell>
        <mxCell id="pibNLHYzL_vAkOEPD65m-27" value="&lt;font style=&quot;font-size: 8px&quot;&gt;Alternative&lt;/font&gt;" style="shape=umlFrame;whiteSpace=wrap;html=1;rounded=0;sketch=0;fontFamily=Poppins;fontSource=https%3A%2F%2Ffonts.googleapis.com%2Fcss%3Ffamily%3DPoppins;fillColor=none;" vertex="1" parent="1">
          <mxGeometry x="-20" y="330" width="715" height="110" as="geometry" />
        </mxCell>
        <mxCell id="pibNLHYzL_vAkOEPD65m-20" value="" style="html=1;points=[];perimeter=orthogonalPerimeter;rounded=0;sketch=0;strokeColor=#6c8ebf;fillColor=#33FFFF;fontFamily=Poppins;fontSource=https%3A%2F%2Ffonts.googleapis.com%2Fcss%3Ffamily%3DPoppins;" vertex="1" parent="1">
          <mxGeometry x="695" y="160" width="10" height="330" as="geometry" />
        </mxCell>
        <mxCell id="pibNLHYzL_vAkOEPD65m-15" value="" style="html=1;points=[];perimeter=orthogonalPerimeter;rounded=0;sketch=0;strokeColor=#6c8ebf;fillColor=#33FFFF;fontFamily=Poppins;fontSource=https%3A%2F%2Ffonts.googleapis.com%2Fcss%3Ffamily%3DPoppins;" vertex="1" parent="1">
          <mxGeometry x="495" y="160" width="10" height="330" as="geometry" />
        </mxCell>
        <mxCell id="pibNLHYzL_vAkOEPD65m-9" value="" style="html=1;points=[];perimeter=orthogonalPerimeter;rounded=0;sketch=0;strokeColor=#6c8ebf;fillColor=#33FFFF;fontFamily=Poppins;fontSource=https%3A%2F%2Ffonts.googleapis.com%2Fcss%3Ffamily%3DPoppins;" vertex="1" parent="1">
          <mxGeometry x="295" y="160" width="10" height="330" as="geometry" />
        </mxCell>
        <mxCell id="pibNLHYzL_vAkOEPD65m-5" value="" style="html=1;points=[];perimeter=orthogonalPerimeter;rounded=0;sketch=0;strokeColor=#6c8ebf;fillColor=#33FFFF;fontFamily=Poppins;fontSource=https%3A%2F%2Ffonts.googleapis.com%2Fcss%3Ffamily%3DPoppins;" vertex="1" parent="1">
          <mxGeometry x="95" y="160" width="10" height="330" as="geometry" />
        </mxCell>
        <mxCell id="pibNLHYzL_vAkOEPD65m-42" value="&lt;font size=&quot;1&quot;&gt;Return true&lt;/font&gt;" style="html=1;verticalAlign=bottom;labelBackgroundColor=none;endArrow=open;endFill=0;fontFamily=Poppins;fontSource=https%3A%2F%2Ffonts.googleapis.com%2Fcss%3Ffamily%3DPoppins;entryX=1.138;entryY=0.665;entryDx=0;entryDy=0;entryPerimeter=0;exitX=-0.118;exitY=0.662;exitDx=0;exitDy=0;exitPerimeter=0;" edge="1" parent="1" source="pibNLHYzL_vAkOEPD65m-20" target="pibNLHYzL_vAkOEPD65m-15">
          <mxGeometry width="160" relative="1" as="geometry">
            <mxPoint x="514.5" y="331.03999999999996" as="sourcePoint" />
            <mxPoint x="705" y="331.03999999999996" as="targetPoint" />
          </mxGeometry>
        </mxCell>
        <mxCell id="pibNLHYzL_vAkOEPD65m-43" value="&lt;font size=&quot;1&quot;&gt;Response with error json&lt;/font&gt;" style="html=1;verticalAlign=bottom;labelBackgroundColor=none;endArrow=open;endFill=0;fontFamily=Poppins;fontSource=https%3A%2F%2Ffonts.googleapis.com%2Fcss%3Ffamily%3DPoppins;entryX=1.024;entryY=0.67;entryDx=0;entryDy=0;entryPerimeter=0;exitX=0.067;exitY=0.665;exitDx=0;exitDy=0;exitPerimeter=0;" edge="1" parent="1" source="pibNLHYzL_vAkOEPD65m-15" target="pibNLHYzL_vAkOEPD65m-9">
          <mxGeometry width="160" relative="1" as="geometry">
            <mxPoint x="487.44000000000017" y="380.00000000000006" as="sourcePoint" />
            <mxPoint x="300.0000000000001" y="380.99000000000007" as="targetPoint" />
          </mxGeometry>
        </mxCell>
        <mxCell id="pibNLHYzL_vAkOEPD65m-44" value="&lt;font size=&quot;1&quot;&gt;Show Error&lt;/font&gt;" style="html=1;verticalAlign=bottom;labelBackgroundColor=none;endArrow=open;endFill=0;fontFamily=Poppins;fontSource=https%3A%2F%2Ffonts.googleapis.com%2Fcss%3Ffamily%3DPoppins;entryX=1.024;entryY=0.67;entryDx=0;entryDy=0;entryPerimeter=0;exitX=0.067;exitY=0.665;exitDx=0;exitDy=0;exitPerimeter=0;" edge="1" parent="1">
          <mxGeometry width="160" relative="1" as="geometry">
            <mxPoint x="295.43000000000006" y="379.99999999999994" as="sourcePoint" />
            <mxPoint x="105" y="381.65000000000003" as="targetPoint" />
          </mxGeometry>
        </mxCell>
        <mxCell id="pibNLHYzL_vAkOEPD65m-45" value="&lt;font size=&quot;1&quot;&gt;Return False&lt;/font&gt;" style="html=1;verticalAlign=bottom;labelBackgroundColor=none;endArrow=open;endFill=0;fontFamily=Poppins;fontSource=https%3A%2F%2Ffonts.googleapis.com%2Fcss%3Ffamily%3DPoppins;entryX=1.138;entryY=0.665;entryDx=0;entryDy=0;entryPerimeter=0;exitX=-0.118;exitY=0.662;exitDx=0;exitDy=0;exitPerimeter=0;" edge="1" parent="1">
          <mxGeometry width="160" relative="1" as="geometry">
            <mxPoint x="692.4400000000002" y="420.00000000000006" as="sourcePoint" />
            <mxPoint x="504.9999999999999" y="420.99000000000007" as="targetPoint" />
          </mxGeometry>
        </mxCell>
        <mxCell id="pibNLHYzL_vAkOEPD65m-46" value="&lt;font size=&quot;1&quot;&gt;8.Save user informations&lt;/font&gt;" style="html=1;verticalAlign=bottom;labelBackgroundColor=none;endArrow=open;endFill=0;fontFamily=Poppins;fontSource=https%3A%2F%2Ffonts.googleapis.com%2Fcss%3Ffamily%3DPoppins;entryX=0.018;entryY=0.911;entryDx=0;entryDy=0;entryPerimeter=0;" edge="1" parent="1">
          <mxGeometry width="160" relative="1" as="geometry">
            <mxPoint x="505" y="467.63" as="sourcePoint" />
            <mxPoint x="695.1799999999998" y="467.63" as="targetPoint" />
          </mxGeometry>
        </mxCell>
        <mxCell id="pibNLHYzL_vAkOEPD65m-36" value="Untitled Layer" parent="0" />
        <mxCell id="pibNLHYzL_vAkOEPD65m-40" value="" style="endArrow=none;dashed=1;html=1;fontFamily=Poppins;fontSource=https%3A%2F%2Ffonts.googleapis.com%2Fcss%3Ffamily%3DPoppins;entryX=-0.001;entryY=0.63;entryDx=0;entryDy=0;entryPerimeter=0;exitX=1.002;exitY=0.633;exitDx=0;exitDy=0;exitPerimeter=0;" edge="1" parent="pibNLHYzL_vAkOEPD65m-36" source="pibNLHYzL_vAkOEPD65m-27" target="pibNLHYzL_vAkOEPD65m-27">
          <mxGeometry width="50" height="50" relative="1" as="geometry">
            <mxPoint x="480" y="460" as="sourcePoint" />
            <mxPoint x="530" y="410" as="targetPoint" />
          </mxGeometry>
        </mxCell>
      </root>
    </mxGraphModel>
  </diagram>
</mxfile>
